<svg width="20" height="20" viewBox="0 0 20 20" fill="none" xmlns="http://www.w3.org/2000/svg">
<g clip-path="url(#clip0_591_1131)">
<path d="M18.2164 4.55814L18.2164 13.8903C18.2164 14.0353 18.1878 14.1789 18.1323 14.3129C18.0768 14.4468 17.9955 14.5686 17.8929 14.6711C17.7904 14.7737 17.6686 14.855 17.5347 14.9105C17.4007 14.966 17.2571 14.9946 17.1121 14.9946C16.967 14.9946 16.8234 14.966 16.6895 14.9105C16.5555 14.855 16.4337 14.7737 16.3312 14.6711C16.2287 14.5686 16.1473 14.4468 16.0918 14.3129C16.0363 14.1789 16.0078 14.0353 16.0078 13.8903L16.0155 7.21001L7.00227 16.2233C6.79601 16.4295 6.51628 16.5454 6.22459 16.5454C5.93291 16.5454 5.65317 16.4295 5.44692 16.2233C5.24066 16.017 5.12479 15.7373 5.12479 15.4456C5.12479 15.1539 5.24066 14.8742 5.44692 14.6679L14.4602 5.65466L7.77994 5.66244C7.48707 5.66244 7.20618 5.54609 6.99909 5.339C6.79199 5.1319 6.67564 4.85102 6.67564 4.55814C6.67564 4.26526 6.79199 3.98438 6.99909 3.77728C7.20618 3.57018 7.48707 3.45384 7.77995 3.45384L17.1121 3.45384C17.2572 3.45324 17.4011 3.4814 17.5354 3.53669C17.6696 3.59197 17.7916 3.67329 17.8942 3.77595C17.9969 3.87862 18.0782 4.00059 18.1335 4.13484C18.1888 4.26909 18.217 4.41295 18.2164 4.55814Z" fill="white"/>
</g>
<defs>
<clipPath id="clip0_591_1131">
<rect width="20" height="20" fill="white"/>
</clipPath>
</defs>
</svg>
