<svg width="20" height="20" viewBox="0 0 20 20" fill="none" xmlns="http://www.w3.org/2000/svg">
<path d="M14.7588 13.5755C14.9157 13.7324 15.0039 13.9452 15.0039 14.1671C15.0039 14.3891 14.9157 14.6019 14.7588 14.7588C14.6019 14.9157 14.3891 15.0039 14.1671 15.0039C13.9452 15.0039 13.7324 14.9157 13.5755 14.7588L10.0005 11.1755L6.42548 14.7588C6.26856 14.9157 6.05573 15.0039 5.83381 15.0039C5.6119 15.0039 5.39907 14.9157 5.24215 14.7588C5.08523 14.6019 4.99707 14.3891 4.99707 14.1671C4.99707 13.9452 5.08523 13.7324 5.24215 13.5755L8.82548 10.0005L5.24215 6.42548C5.08523 6.26856 4.99707 6.05573 4.99707 5.83381C4.99707 5.6119 5.08523 5.39907 5.24215 5.24215C5.39907 5.08523 5.6119 4.99707 5.83381 4.99707C6.05573 4.99707 6.26856 5.08523 6.42548 5.24215L10.0005 8.82548L13.5755 5.24215C13.7324 5.08523 13.9452 4.99707 14.1671 4.99707C14.3891 4.99707 14.6019 5.08523 14.7588 5.24215C14.9157 5.39907 15.0039 5.6119 15.0039 5.83381C15.0039 6.05573 14.9157 6.26856 14.7588 6.42548L11.1755 10.0005L14.7588 13.5755Z" fill="white"/>
</svg>
