<svg width="24" height="24" viewBox="0 0 24 24" fill="none" xmlns="http://www.w3.org/2000/svg">
<path d="M20.59 9L18.44 5.46C18.1741 5.01548 17.7977 4.64738 17.3473 4.39153C16.8969 4.13568 16.388 4.00079 15.87 4H8.13002C7.61205 4.00079 7.10311 4.13568 6.65274 4.39153C6.20237 4.64738 5.82591 5.01548 5.56002 5.46L3.41002 9C2.73271 9.10579 2.11623 9.45216 1.67359 9.97561C1.23095 10.4991 0.99181 11.1645 1.00002 11.85V14.15C1.00061 14.5595 1.09037 14.9639 1.26307 15.3352C1.43576 15.7065 1.68724 16.0357 2.00002 16.3V17C2.00002 17.7956 2.31609 18.5587 2.8787 19.1213C3.44131 19.6839 4.20437 20 5.00002 20C5.79567 20 6.55873 19.6839 7.12134 19.1213C7.68395 18.5587 8.00002 17.7956 8.00002 17H16C16 17.7956 16.3161 18.5587 16.8787 19.1213C17.4413 19.6839 18.2044 20 19 20C19.7957 20 20.5587 19.6839 21.1213 19.1213C21.684 18.5587 22 17.7956 22 17V16.3C22.3128 16.0357 22.5643 15.7065 22.737 15.3352C22.9097 14.9639 22.9994 14.5595 23 14.15V11.85C23.0082 11.1645 22.7691 10.4991 22.3265 9.97561C21.8838 9.45216 21.2673 9.10579 20.59 9ZM7.27002 6.49C7.35853 6.34072 7.48436 6.21705 7.63515 6.13114C7.78593 6.04522 7.95648 6.00003 8.13002 6H15.87C16.0419 6.00175 16.2104 6.04776 16.3592 6.13359C16.5081 6.21942 16.6324 6.34217 16.72 6.49L18.23 9H5.77002L7.27002 6.49ZM5.00002 18C4.7348 18 4.48045 17.8946 4.29291 17.7071C4.10538 17.5196 4.00002 17.2652 4.00002 17H6.00002C6.00002 17.2652 5.89466 17.5196 5.70713 17.7071C5.51959 17.8946 5.26524 18 5.00002 18ZM8.00002 15H3.85002C3.62459 15 3.40839 14.9104 3.24898 14.751C3.08957 14.5916 3.00002 14.3754 3.00002 14.15V14H5.00002C5.26524 14 5.51959 13.8946 5.70713 13.7071C5.89466 13.5196 6.00002 13.2652 6.00002 13C6.00002 12.7348 5.89466 12.4804 5.70713 12.2929C5.51959 12.1054 5.26524 12 5.00002 12H3.00002V11.85C3.00002 11.6246 3.08957 11.4084 3.24898 11.249C3.40839 11.0896 3.62459 11 3.85002 11H20.15C20.3755 11 20.5917 11.0896 20.7511 11.249C20.9105 11.4084 21 11.6246 21 11.85V12H19C18.7348 12 18.4804 12.1054 18.2929 12.2929C18.1054 12.4804 18 12.7348 18 13C18 13.2652 18.1054 13.5196 18.2929 13.7071C18.4804 13.8946 18.7348 14 19 14H21V14.15C21 14.3754 20.9105 14.5916 20.7511 14.751C20.5917 14.9104 20.3755 15 20.15 15H8.00002ZM19 18C18.7348 18 18.4804 17.8946 18.2929 17.7071C18.1054 17.5196 18 17.2652 18 17H20C20 17.2652 19.8947 17.5196 19.7071 17.7071C19.5196 17.8946 19.2652 18 19 18ZM16 13C16 13.2652 15.8947 13.5196 15.7071 13.7071C15.5196 13.8946 15.2652 14 15 14H9.00002C8.73481 14 8.48045 13.8946 8.29291 13.7071C8.10538 13.5196 8.00002 13.2652 8.00002 13C8.00002 12.7348 8.10538 12.4804 8.29291 12.2929C8.48045 12.1054 8.73481 12 9.00002 12H15C15.2652 12 15.5196 12.1054 15.7071 12.2929C15.8947 12.4804 16 12.7348 16 13Z" fill="#222221"/>
</svg>
