<svg width="24" height="24" viewBox="0 0 24 24" fill="none" xmlns="http://www.w3.org/2000/svg">
<path d="M11 8C11 7.73478 11.1054 7.48043 11.2929 7.29289C11.4804 7.10536 11.7348 7 12 7C12.1738 7.0038 12.3436 7.05283 12.4926 7.14227C12.6417 7.2317 12.7649 7.35845 12.85 7.51C12.9459 7.65559 12.998 7.82567 13 8C13 8.26522 12.8946 8.51957 12.7071 8.70711C12.5196 8.89464 12.2652 9 12 9C11.7348 9 11.4804 8.89464 11.2929 8.70711C11.1054 8.51957 11 8.26522 11 8ZM22 12C22 13.9778 21.4135 15.9112 20.3147 17.5557C19.2159 19.2002 17.6541 20.4819 15.8268 21.2388C13.9996 21.9957 11.9889 22.1937 10.0491 21.8079C8.10929 21.422 6.32746 20.4696 4.92894 19.0711C3.53041 17.6725 2.578 15.8907 2.19215 13.9509C1.8063 12.0111 2.00433 10.0004 2.76121 8.17317C3.51809 6.3459 4.79981 4.78412 6.4443 3.6853C8.08879 2.58649 10.0222 2 12 2C13.3132 2 14.6136 2.25866 15.8268 2.7612C17.0401 3.26375 18.1425 4.00035 19.0711 4.92893C19.9997 5.85752 20.7363 6.95991 21.2388 8.17317C21.7413 9.38642 22 10.6868 22 12ZM20 12C20 10.4177 19.5308 8.87103 18.6518 7.55544C17.7727 6.23984 16.5233 5.21447 15.0615 4.60896C13.5997 4.00346 11.9911 3.84504 10.4393 4.15372C8.88743 4.4624 7.46197 5.22433 6.34315 6.34315C5.22433 7.46197 4.4624 8.88743 4.15372 10.4393C3.84504 11.9911 4.00347 13.5997 4.60897 15.0615C5.21447 16.5233 6.23985 17.7727 7.55544 18.6518C8.87104 19.5308 10.4178 20 12 20C14.1217 20 16.1566 19.1571 17.6569 17.6569C19.1572 16.1566 20 14.1217 20 12ZM13 14V11C13 10.7348 12.8946 10.4804 12.7071 10.2929C12.5196 10.1054 12.2652 10 12 10H11C10.7348 10 10.4804 10.1054 10.2929 10.2929C10.1054 10.4804 10 10.7348 10 11C10 11.2652 10.1054 11.5196 10.2929 11.7071C10.4804 11.8946 10.7348 12 11 12V15C11 15.2652 11.1054 15.5196 11.2929 15.7071C11.4804 15.8946 11.7348 16 12 16H13C13.2652 16 13.5196 15.8946 13.7071 15.7071C13.8946 15.5196 14 15.2652 14 15C14 14.7348 13.8946 14.4804 13.7071 14.2929C13.5196 14.1054 13.2652 14 13 14Z" fill="#222221"/>
</svg>
