<svg width="57" height="58" viewBox="0 0 57 58" fill="none" xmlns="http://www.w3.org/2000/svg">
<path d="M28.5002 19.5C26.1515 19.5 23.8556 20.1965 21.9028 21.5013C19.9499 22.8061 18.4279 24.6608 17.5291 26.8306C16.6303 29.0005 16.3951 31.3882 16.8533 33.6917C17.3115 35.9952 18.4425 38.1111 20.1033 39.7719C21.764 41.4326 23.8799 42.5636 26.1835 43.0218C28.487 43.48 30.8747 43.2449 33.0445 42.3461C35.2144 41.4473 37.069 39.9252 38.3739 37.9724C39.6787 36.0196 40.3752 33.7237 40.3752 31.375C40.3752 28.2256 39.1241 25.2051 36.8971 22.9781C34.6701 20.7511 31.6496 19.5 28.5002 19.5ZM28.5002 38.5C27.091 38.5 25.7134 38.0821 24.5417 37.2992C23.37 36.5163 22.4568 35.4035 21.9175 34.1016C21.3783 32.7997 21.2372 31.3671 21.5121 29.985C21.787 28.6029 22.4656 27.3333 23.462 26.3369C24.4585 25.3404 25.728 24.6618 27.1101 24.3869C28.4923 24.112 29.9249 24.2531 31.2268 24.7924C32.5287 25.3316 33.6415 26.2449 34.4244 27.4166C35.2073 28.5883 35.6252 29.9658 35.6252 31.375C35.6252 33.2647 34.8745 35.0769 33.5383 36.4131C32.2021 37.7493 30.3898 38.5 28.5002 38.5ZM50.2077 14.9875C49.557 14.2908 48.7701 13.7353 47.8958 13.3554C47.0215 12.9754 46.0784 12.7792 45.1252 12.7788H42.4177C42.092 12.7777 41.7701 12.7097 41.4718 12.579C41.1735 12.4482 40.9054 12.2575 40.6839 12.0188L37.3589 8.50375C37.1354 8.26928 36.8663 8.08302 36.5681 7.9564C36.27 7.82979 35.9491 7.7655 35.6252 7.7675H21.3752C21.0512 7.7655 20.7303 7.82979 20.4322 7.9564C20.134 8.08302 19.8649 8.26928 19.6414 8.50375L16.3164 12.0188C16.095 12.2575 15.8268 12.4482 15.5285 12.579C15.2303 12.7097 14.9083 12.7777 14.5827 12.7788H11.8752C10.9219 12.7792 9.97885 12.9754 9.10456 13.3554C8.23027 13.7353 7.44337 14.2908 6.79267 14.9875C5.46918 16.3851 4.73733 18.2403 4.75017 20.165V45.2212C4.74345 47.1378 5.47487 48.9834 6.79267 50.375C7.43767 51.0805 8.22293 51.6436 9.09815 52.028C9.97337 52.4124 10.9192 52.6098 11.8752 52.6075H45.1252C46.0811 52.6098 47.027 52.4124 47.9022 52.028C48.7774 51.6436 49.5627 51.0805 50.2077 50.375C51.5255 48.9834 52.2569 47.1378 52.2502 45.2212V20.165C52.263 18.2403 51.5311 16.3851 50.2077 14.9875ZM47.5002 45.2212C47.5127 45.9336 47.2488 46.6231 46.7639 47.145C46.5555 47.3714 46.302 47.5517 46.0198 47.6744C45.7376 47.7971 45.4329 47.8594 45.1252 47.8575H11.8752C11.5675 47.8594 11.2627 47.7971 10.9805 47.6744C10.6983 47.5517 10.4449 47.3714 10.2364 47.145C9.75149 46.6231 9.48761 45.9336 9.50017 45.2212V20.165C9.48761 19.4527 9.75149 18.7632 10.2364 18.2413C10.4449 18.0149 10.6983 17.8346 10.9805 17.7119C11.2627 17.5892 11.5675 17.5268 11.8752 17.5288H14.5827C15.5522 17.5285 16.5114 17.3303 17.4016 16.9464C18.2919 16.5626 19.0944 16.001 19.7602 15.2963L22.3964 12.5175H34.6039L37.2402 15.2963L38.9739 13.6575L37.2402 15.2963C37.9059 16.001 38.7084 16.5626 39.5987 16.9464C40.4889 17.3303 41.4482 17.5285 42.4177 17.5288H45.1252C45.4329 17.5268 45.7376 17.5892 46.0198 17.7119C46.302 17.8346 46.5555 18.0149 46.7639 18.2413C47.2488 18.7632 47.5127 19.4527 47.5002 20.165V45.2212Z" fill="white"/>
</svg>
