<svg width="19" height="20" viewBox="0 0 19 20" fill="none" xmlns="http://www.w3.org/2000/svg">
<path d="M15.5 6.00004H8.50003V4.00004C8.49843 3.05736 8.16394 2.14553 7.55558 1.42543C6.94721 0.705333 6.10407 0.223233 5.17491 0.0641863C4.24574 -0.0948604 3.29026 0.0793674 2.47702 0.556131C1.66379 1.0329 1.04508 1.78156 0.730032 2.67004C0.576049 3.09647 0.498199 3.54665 0.500032 4.00004C0.500032 4.26525 0.605388 4.51961 0.792925 4.70714C0.980461 4.89468 1.23482 5.00004 1.50003 5.00004C1.76525 5.00004 2.0196 4.89468 2.20714 4.70714C2.39467 4.51961 2.50003 4.26525 2.50003 4.00004C2.49993 3.7722 2.53709 3.54588 2.61003 3.33004C2.76513 2.88178 3.07449 2.50324 3.48288 2.26199C3.89128 2.02075 4.37213 1.9325 4.83957 2.01301C5.30702 2.09352 5.73063 2.33755 6.03479 2.70152C6.33894 3.0655 6.50384 3.52572 6.50003 4.00004V6.00004H5.50003C4.70438 6.00004 3.94132 6.31611 3.37871 6.87872C2.8161 7.44132 2.50003 8.20439 2.50003 9.00004V17C2.50003 17.7957 2.8161 18.5587 3.37871 19.1214C3.94132 19.684 4.70438 20 5.50003 20H15.5C16.2957 20 17.0587 19.684 17.6214 19.1214C18.184 18.5587 18.5 17.7957 18.5 17V9.00004C18.5 8.20439 18.184 7.44132 17.6214 6.87872C17.0587 6.31611 16.2957 6.00004 15.5 6.00004ZM16.5 17C16.5 17.2653 16.3947 17.5196 16.2071 17.7071C16.0196 17.8947 15.7652 18 15.5 18H5.50003C5.23482 18 4.98046 17.8947 4.79292 17.7071C4.60539 17.5196 4.50003 17.2653 4.50003 17V9.00004C4.50003 8.73482 4.60539 8.48047 4.79292 8.29293C4.98046 8.10539 5.23482 8.00004 5.50003 8.00004H15.5C15.7652 8.00004 16.0196 8.10539 16.2071 8.29293C16.3947 8.48047 16.5 8.73482 16.5 9.00004V17ZM12 12.48C11.9993 12.7335 11.9348 12.9826 11.8125 13.2046C11.6901 13.4265 11.5139 13.6141 11.3 13.75V14.48C11.3 14.6922 11.2157 14.8957 11.0657 15.0457C10.9157 15.1958 10.7122 15.28 10.5 15.28C10.2879 15.28 10.0844 15.1958 9.93435 15.0457C9.78432 14.8957 9.70003 14.6922 9.70003 14.48V13.75C9.48615 13.6141 9.30993 13.4265 9.1876 13.2046C9.06527 12.9826 9.00076 12.7335 9.00003 12.48C9.00003 12.0822 9.15807 11.7007 9.43937 11.4194C9.72068 11.1381 10.1022 10.98 10.5 10.98C10.8979 10.98 11.2794 11.1381 11.5607 11.4194C11.842 11.7007 12 12.0822 12 12.48Z" fill="#404040"/>
</svg>
