<svg width="1219" height="268" viewBox="0 0 1219 268" fill="none" xmlns="http://www.w3.org/2000/svg">
<path fill-rule="evenodd" clip-rule="evenodd" d="M0 30V0C0 16.5685 13.4315 30 30 30H442C458.569 30 472 43.4315 472 60V119C472 135.569 485.431 149 502 149H748C764.569 149 778 162.431 778 179V238C778 254.569 791.431 268 808 268H778H30C13.4314 268 0 254.569 0 238V154V149V30Z" fill="white"/>
<path d="M36.32 83.16H56.48V91.72H36.32V83.16ZM36.32 106.12H56.48V114.68H36.32V106.12ZM23.52 73.16C34.56 73.16 42.64 83.4 42.64 99.56C42.64 115.88 34.56 126.12 23.52 126.12C12.4 126.12 4.4 115.88 4.4 99.56C4.4 83.4 12.4 73.16 23.52 73.16ZM23.52 82.84C18.16 82.84 14.48 88.68 14.48 99.56C14.48 110.6 18.16 116.52 23.52 116.52C28.96 116.52 32.56 110.6 32.56 99.56C32.56 88.68 28.96 82.84 23.52 82.84ZM54.8 67.96H65.36V142.28H54.8V67.96ZM129.834 68.04H139.914V114.44H129.834V68.04ZM120.794 86.28H132.634V94.92H120.794V86.28ZM114.474 69.48H124.394V112.04H114.474V69.48ZM76.4738 75.64H112.394V83.8H76.4738V75.64ZM94.5538 86.2C103.834 86.2 110.554 91.48 110.554 99.16C110.554 106.84 103.834 112.04 94.5538 112.04C85.2738 112.04 78.5538 106.84 78.5538 99.16C78.5538 91.48 85.2738 86.2 94.5538 86.2ZM94.5538 93.8C90.6338 93.8 87.9938 95.72 87.9938 99.16C87.9938 102.6 90.6338 104.52 94.5538 104.52C98.3938 104.52 101.034 102.6 101.034 99.16C101.034 95.72 98.3938 93.8 94.5538 93.8ZM89.1938 68.76H99.6738V81.24H89.1938V68.76ZM114.874 115.24C130.714 115.24 140.314 120.04 140.314 128.68C140.314 137.24 130.714 142.12 114.874 142.12C98.9538 142.12 89.3538 137.24 89.3538 128.68C89.3538 120.04 98.9538 115.24 114.874 115.24ZM114.874 123.16C104.954 123.16 99.9938 124.84 99.9938 128.68C99.9938 132.44 104.954 134.2 114.874 134.2C124.714 134.2 129.674 132.44 129.674 128.68C129.674 124.84 124.714 123.16 114.874 123.16ZM198.791 87.56H213.831V96.04H198.791V87.56ZM198.391 106.04H213.511V114.52H198.391V106.04ZM223.911 68.04H234.071V142.12H223.911V68.04ZM208.631 69.64H218.551V138.84H208.631V69.64ZM191.911 76.76H202.151C202.151 97.8 195.831 114.6 175.191 126.76L169.191 119.32C185.911 109.16 191.911 96.84 191.911 78.92V76.76ZM173.431 76.76H195.511V85.24H173.431V76.76ZM246.305 73.48H289.825V81.08H246.305V73.48ZM268.065 82.84C279.105 82.84 286.465 87.24 286.465 93.96C286.465 100.76 279.105 105.08 268.065 105.08C257.025 105.08 249.665 100.76 249.665 93.96C249.665 87.24 257.025 82.84 268.065 82.84ZM268.065 89.88C263.105 89.88 259.825 91.24 259.825 93.96C259.825 96.6 263.105 98.04 268.065 98.04C273.105 98.04 276.305 96.6 276.305 93.96C276.305 91.24 273.105 89.88 268.065 89.88ZM262.705 67.56H273.425V77.32H262.705V67.56ZM262.705 101.16H273.425V111.48H262.705V101.16ZM294.865 68.12H305.585V118.28H294.865V68.12ZM254.385 121.16H305.585V142.12H294.865V129.32H254.385V121.16ZM245.505 116.84L244.225 108.76C257.585 108.76 275.345 108.68 290.465 106.76L291.265 113.88C275.585 116.6 258.545 116.84 245.505 116.84ZM317.419 105.8H384.379V114.28H317.419V105.8ZM325.499 132.36H376.859V140.84H325.499V132.36ZM325.499 119.24H336.139V135.08H325.499V119.24ZM350.939 70.2C367.019 70.2 377.739 76.04 377.739 85.48C377.739 94.92 367.019 100.76 350.939 100.76C334.779 100.76 324.139 94.92 324.139 85.48C324.139 76.04 334.779 70.2 350.939 70.2ZM350.939 78.68C340.939 78.68 335.099 81 335.099 85.48C335.099 90.04 340.939 92.28 350.939 92.28C360.939 92.28 366.779 90.04 366.779 85.48C366.779 81 360.939 78.68 350.939 78.68Z" fill="black"/>
<path d="M3.18182 192.653V183.818H49.6023V192.653H31.6193V242H21.1648V192.653H3.18182ZM58.5511 242V183.818H80.3693C84.839 183.818 88.589 184.595 91.6193 186.148C94.6686 187.701 96.9697 189.879 98.5227 192.682C100.095 195.466 100.881 198.714 100.881 202.426C100.881 206.157 100.085 209.396 98.4943 212.142C96.9223 214.869 94.6023 216.981 91.5341 218.477C88.4659 219.955 84.697 220.693 80.2273 220.693H64.6875V211.943H78.8068C81.4205 211.943 83.5606 211.583 85.2273 210.864C86.8939 210.125 88.125 209.055 88.9205 207.653C89.7348 206.233 90.142 204.491 90.142 202.426C90.142 200.362 89.7348 198.6 88.9205 197.142C88.1061 195.665 86.8655 194.547 85.1989 193.79C83.5322 193.013 81.3826 192.625 78.75 192.625H69.0909V242H58.5511ZM88.608 215.636L103.011 242H91.25L77.1023 215.636H88.608ZM121.122 183.818V242H110.582V183.818H121.122ZM132.536 242V183.818H154.354C158.823 183.818 162.573 184.652 165.604 186.318C168.653 187.985 170.954 190.277 172.507 193.193C174.079 196.091 174.865 199.386 174.865 203.08C174.865 206.811 174.079 210.125 172.507 213.023C170.935 215.92 168.615 218.203 165.547 219.869C162.479 221.517 158.7 222.341 154.212 222.341H139.751V213.676H152.791C155.405 213.676 157.545 213.222 159.212 212.312C160.878 211.403 162.109 210.153 162.905 208.562C163.719 206.972 164.126 205.144 164.126 203.08C164.126 201.015 163.719 199.197 162.905 197.625C162.109 196.053 160.869 194.831 159.183 193.96C157.517 193.07 155.367 192.625 152.734 192.625H143.075V242H132.536ZM184.02 242V183.818H205.838C210.308 183.818 214.058 184.652 217.088 186.318C220.137 187.985 222.438 190.277 223.991 193.193C225.563 196.091 226.349 199.386 226.349 203.08C226.349 206.811 225.563 210.125 223.991 213.023C222.42 215.92 220.099 218.203 217.031 219.869C213.963 221.517 210.185 222.341 205.696 222.341H191.236V213.676H204.276C206.889 213.676 209.029 213.222 210.696 212.312C212.363 211.403 213.594 210.153 214.389 208.562C215.204 206.972 215.611 205.144 215.611 203.08C215.611 201.015 215.204 199.197 214.389 197.625C213.594 196.053 212.353 194.831 210.668 193.96C209.001 193.07 206.851 192.625 204.219 192.625H194.56V242H184.02ZM231.527 183.818H243.43L257.663 209.557H258.232L272.464 183.818H284.368L263.203 220.295V242H252.692V220.295L231.527 183.818Z" fill="#5580C9"/>
<path d="M318.894 202.32H331.054V210.88H318.894V202.32ZM342.814 175.04H352.974V249.12H342.814V175.04ZM327.694 176.16H337.694V245.76H327.694V176.16ZM305.934 180.24C315.774 180.24 322.094 190.4 322.094 207.12C322.094 223.92 315.774 234.08 305.934 234.08C296.174 234.08 289.934 223.92 289.934 207.12C289.934 190.4 296.174 180.24 305.934 180.24ZM305.934 190.24C301.934 190.24 299.614 195.84 299.614 207.12C299.614 218.48 301.934 224 305.934 224C310.094 224 312.414 218.48 312.414 207.12C312.414 195.84 310.094 190.24 305.934 190.24ZM400.248 198.16H419.768V206.72H400.248V198.16ZM380.088 180.72H388.728V191.44C388.728 210.08 382.408 227.28 368.488 234.24L361.848 225.68C374.488 219.84 380.088 205.52 380.088 191.44V180.72ZM382.328 180.72H390.808V191.44C390.808 205.52 396.168 219.04 408.408 224.48L402.088 232.96C388.168 226.24 382.328 209.92 382.328 191.44V180.72ZM414.488 174.96H425.048V249.28H414.488V174.96ZM504.005 175.12H514.645V230.48H504.005V175.12ZM511.605 197.68H524.485V206.4H511.605V197.68ZM456.325 182.8H499.925V191.12H456.325V182.8ZM478.165 193.76C488.805 193.76 496.325 199.6 496.325 208.08C496.325 216.56 488.805 222.32 478.165 222.32C467.445 222.32 459.925 216.56 459.925 208.08C459.925 199.6 467.445 193.76 478.165 193.76ZM478.165 201.84C473.445 201.84 470.165 204.08 470.165 208.08C470.165 212.08 473.445 214.24 478.165 214.24C482.885 214.24 486.165 212.08 486.165 208.08C486.165 204.08 482.885 201.84 478.165 201.84ZM472.805 174.96H483.445V186.88H472.805V174.96ZM466.885 239.36H517.285V247.84H466.885V239.36ZM466.885 226.32H477.525V243.04H466.885V226.32ZM564.959 194.72H583.999V203.2H564.959V194.72ZM581.279 175.12H591.919V229.76H581.279V175.12ZM542.879 239.36H593.519V247.84H542.879V239.36ZM542.879 224.4H553.599V244.24H542.879V224.4ZM533.039 179.92H543.599V191.2H557.679V179.92H568.079V218.16H533.039V179.92ZM543.599 199.28V209.76H557.679V199.28H543.599ZM633.113 202.32H645.273V210.88H633.113V202.32ZM657.033 175.04H667.193V249.12H657.033V175.04ZM641.913 176.16H651.913V245.76H641.913V176.16ZM620.153 180.24C629.993 180.24 636.313 190.4 636.313 207.12C636.313 223.92 629.993 234.08 620.153 234.08C610.393 234.08 604.153 223.92 604.153 207.12C604.153 190.4 610.393 180.24 620.153 180.24ZM620.153 190.24C616.153 190.24 613.833 195.84 613.833 207.12C613.833 218.48 616.153 224 620.153 224C624.313 224 626.633 218.48 626.633 207.12C626.633 195.84 624.313 190.24 620.153 190.24Z" fill="black"/>
</svg>
