<svg width="25" height="24" viewBox="0 0 25 24" fill="none" xmlns="http://www.w3.org/2000/svg">
<path d="M1.26872 12C1.26872 18.1 6.16872 23 12.2687 23C18.3687 23 23.2687 18.1 23.2687 12C23.2687 5.9 18.3687 0.999999 12.2687 1C6.16872 1 1.26872 5.9 1.26872 12ZM13.2687 7.5L13.2687 14.1L15.5687 11.8C15.9687 11.4 16.5687 11.4 16.9687 11.8C17.1687 12 17.2687 12.3 17.2687 12.5C17.2687 12.7 17.1687 13 16.9687 13.2L12.9687 17.2C12.5687 17.6 11.9687 17.6 11.5687 17.2L7.56872 13.2C7.16872 12.8 7.16872 12.2 7.56872 11.8C7.96872 11.4 8.56872 11.4 8.96872 11.8L11.2687 14.1L11.2687 7.5C11.2687 6.9 11.6687 6.5 12.2687 6.5C12.8687 6.5 13.2687 7 13.2687 7.5Z" fill="#4F81FF"/>
</svg>
