<svg width="24" height="24" viewBox="0 0 24 24" fill="none" xmlns="http://www.w3.org/2000/svg">
<g clip-path="url(#clip0_400_339)">
<path d="M18.3755 6.55851L18.3755 15.8906C18.3755 16.0356 18.347 16.1792 18.2915 16.3132C18.236 16.4472 18.1546 16.5689 18.0521 16.6715C17.9496 16.774 17.8278 16.8554 17.6938 16.9109C17.5599 16.9664 17.4163 16.9949 17.2712 16.9949C17.1262 16.9949 16.9826 16.9664 16.8486 16.9109C16.7147 16.8554 16.5929 16.774 16.4904 16.6715C16.3878 16.5689 16.3065 16.4472 16.251 16.3132C16.1955 16.1792 16.1669 16.0356 16.1669 15.8906L16.1747 9.21038L7.16145 18.2236C6.95519 18.4299 6.67546 18.5458 6.38377 18.5458C6.09209 18.5458 5.81235 18.4299 5.60609 18.2236C5.39984 18.0174 5.28397 17.7377 5.28397 17.446C5.28397 17.1543 5.39984 16.8745 5.6061 16.6683L14.6194 7.65503L7.93912 7.66281C7.64625 7.66281 7.36536 7.54646 7.15827 7.33936C6.95117 7.13227 6.83482 6.85138 6.83482 6.55851C6.83482 6.26563 6.95117 5.98474 7.15827 5.77765C7.36536 5.57055 7.64625 5.4542 7.93912 5.4542L17.2712 5.45421C17.4164 5.45361 17.5603 5.48177 17.6945 5.53705C17.8288 5.59234 17.9508 5.67366 18.0534 5.77632C18.1561 5.87898 18.2374 6.00096 18.2927 6.1352C18.348 6.26945 18.3761 6.41332 18.3755 6.55851Z" fill="white"/>
</g>
<defs>
<clipPath id="clip0_400_339">
<rect width="23.3412" height="23.3412" fill="white" transform="translate(0.15918 0.329407)"/>
</clipPath>
</defs>
</svg>
