<svg width="25" height="24" viewBox="0 0 25 24" fill="none" xmlns="http://www.w3.org/2000/svg">
<path d="M12.25 13C13.2389 13 14.2056 12.7068 15.0279 12.1573C15.8501 11.6079 16.491 10.827 16.8694 9.91342C17.2478 8.99979 17.3469 7.99446 17.1539 7.02455C16.961 6.05465 16.4848 5.16373 15.7855 4.46447C15.0863 3.76521 14.1954 3.289 13.2255 3.09608C12.2555 2.90315 11.2502 3.00217 10.3366 3.3806C9.42295 3.75904 8.64206 4.39991 8.09265 5.22215C7.54324 6.0444 7.25 7.0111 7.25 8C7.25 9.32609 7.77678 10.5979 8.71447 11.5355C9.65215 12.4732 10.9239 13 12.25 13ZM12.25 5C12.8433 5 13.4234 5.17595 13.9167 5.50559C14.4101 5.83524 14.7946 6.30377 15.0216 6.85195C15.2487 7.40013 15.3081 8.00333 15.1924 8.58527C15.0766 9.16722 14.7909 9.70177 14.3713 10.1213C13.9518 10.5409 13.4172 10.8266 12.8353 10.9424C12.2533 11.0581 11.6501 10.9987 11.1019 10.7716C10.5538 10.5446 10.0852 10.1601 9.75559 9.66671C9.42595 9.17337 9.25 8.59335 9.25 8C9.25 7.20435 9.56607 6.44129 10.1287 5.87868C10.6913 5.31607 11.4544 5 12.25 5ZM19.25 18V20C19.25 20.2652 19.1446 20.5196 18.9571 20.7071C18.7696 20.8946 18.5152 21 18.25 21C17.9848 21 17.7304 20.8946 17.5429 20.7071C17.3554 20.5196 17.25 20.2652 17.25 20V18C17.25 17.7348 17.1446 17.4804 16.9571 17.2929C16.7696 17.1054 16.5152 17 16.25 17H8.25C7.98478 17 7.73043 17.1054 7.54289 17.2929C7.35536 17.4804 7.25 17.7348 7.25 18V20C7.25 20.2652 7.14464 20.5196 6.95711 20.7071C6.76957 20.8946 6.51522 21 6.25 21C5.98478 21 5.73043 20.8946 5.54289 20.7071C5.35536 20.5196 5.25 20.2652 5.25 20V18C5.25 17.2044 5.56607 16.4413 6.12868 15.8787C6.69129 15.3161 7.45435 15 8.25 15H16.25C17.0456 15 17.8087 15.3161 18.3713 15.8787C18.9339 16.4413 19.25 17.2044 19.25 18Z" fill="white"/>
</svg>
